#!OML:ASF H:\Terrain\Patient Classification 1\PLAYGROUND\JustinFriday\JustinFriday.ASF
:FULLY-SPECIFIED
:DEGREES
1462
root 12.9148 20.1087 21.2925 175.608 4.91947 -172.139
lowerback 25.637 0.42762 4.16408
upperback -5.63522 3.08215 4.08987
thorax -20.7171 1.21256 0.999132
lowerneck -0.199105 -3.32695 -8.52664
upperneck 11.6288 -4.45242 7.93169
head 3.85909 -2.00071 3.68707
rclavicle 2.98177e-015 -3.57812e-014
rhumerus 111.518 -15.2831 -58.5038
rradius 27.0165
rwrist 24.1268
rhand -33.0819 -12.4145
rfingers 7.12502
rthumb -6.29327 -402.301
lclavicle 2.98177e-015 -3.57812e-014
lhumerus 105.898 21.9154 64.2993
lradius 22.7535
lwrist -49.1472
lhand -36.2381 -15.4329
lfingers 7.12502
lthumb -9.33952 14.3402
rfemur -20.906 -14.0607 22.0556
rtibia 88.1577
rfoot -17.1596 -8.94421
rtoes -4.16094
lfemur -22.0387 11.9601 3.8365
ltibia 89.9983
lfoot -19.1663 -2.54623
ltoes -23.6155
1463
root 12.9112 20.129 21.2448 175.153 4.84357 -172.245
lowerback 26.2362 0.515305 4.15406
upperback -5.47362 3.18742 3.95916
thorax -20.829 1.23516 0.802394
lowerneck -0.560956 -3.50588 -8.1325
upperneck 11.5723 -4.68556 7.76731
head 3.9094 -2.10709 3.55418
rclavicle 1.46852e-014 1.18078e-013
rhumerus 111.884 -15.3728 -59.1087
rradius 26.7933
rwrist 24.9683
rhand -32.9461 -12.1719
rfingers 7.12502
rthumb -6.16221 -402.062
lclavicle 1.46852e-014 1.18078e-013
lhumerus 106.225 21.9124 63.9944
lradius 22.5433
lwrist -48.6495
lhand -36.3874 -15.3498
lfingers 7.12502
lthumb -9.48358 14.4168
rfemur -23.213 -14.6363 22.419
rtibia 88.2414
rfoot -17.6086 -8.49689
rtoes -3.2854
lfemur -24.3217 12.72 3.51663
ltibia 90.4438
lfoot -19.7127 -2.50455
ltoes -23.7047
1464
root 12.9074 20.1509 21.192 174.673 4.77454 -172.348
lowerback 26.7368 0.511896 4.04531
upperback -5.34679 3.18349 4.00542
thorax -20.9522 1.24746 0.90784
lowerneck -0.538902 -3.55021 -8.29592
upperneck 11.4512 -4.74518 7.76225
head 3.87825 -2.14938 3.57655
rclavicle 1.07344e-014 -1.19271e-015
rhumerus 112.164 -15.2666 -59.2871
rradius 26.6348
rwrist 25.3306
rhand -32.8621 -12.0153
rfingers 7.12502
rthumb -6.08113 -401.908
lclavicle 1.07344e-014 -1.19271e-015
lhumerus 106.149 22.2059 63.6281
lradius 22.3713
lwrist -48.195
lhand -36.5126 -15.2553
lfingers 7.12502
lthumb -9.60436 14.5058
rfemur -25.4073 -15.0603 22.7874
rtibia 88.2723
rfoot -18.029 -8.05377
rtoes -1.12668
lfemur -26.6 13.3581 3.11164
ltibia 90.8647
lfoot -20.1362 -2.79146
ltoes -23.7082
1465
root 12.9006 20.1732 21.1392 174.186 4.70587 -172.301
lowerback 27.3172 0.463625 4.10796
upperback -5.25522 3.19509 4.05837
thorax -21.1532 1.24547 0.917601
lowerneck -0.858745 -3.64515 -8.39164
upperneck 11.8097 -4.85251 7.76337
head 4.05167 -2.19418 3.58375
rclavicle -3.42904e-015 -4.37326e-014
rhumerus 112.361 -15.1915 -59.4319
rradius 26.4646
rwrist 25.545
rhand -32.8466 -11.8672
rfingers 7.12502
rthumb -6.06614 -401.76
lclavicle -3.42904e-015 -4.37326e-014
lhumerus 106.09 22.3047 63.4862
lradius 22.2902
lwrist -48.0361
lhand -36.5981 -15.2024
lfingers 7.12502
lthumb -9.68687 14.5548
rfemur -27.6695 -15.3943 23.3926
rtibia 88.2819
rfoot -18.282 -8.0037
rtoes -1.25646
lfemur -28.9088 13.9148 2.74349
ltibia 91.2785
lfoot -20.5032 -2.48501
ltoes -24.7845
1466
root 12.8946 20.1893 21.0873 173.701 4.66939 -172.112
lowerback 27.7959 0.401379 4.2916
upperback -5.16463 3.23859 4.14284
thorax -21.2923 1.24823 0.883432
lowerneck -1.23153 -3.56808 -8.43973
upperneck 12.2114 -4.73148 7.84534
head 4.22832 -2.11737 3.61917
rclavicle 1.33683e-014 3.69739e-014
rhumerus 112.495 -15.0809 -59.5795
rradius 26.3047
rwrist 25.7887
rhand -32.8144 -11.6735
rfingers 7.12502
rthumb -6.03502 -401.568
lclavicle 1.33683e-014 3.69739e-014
lhumerus 106.066 22.293 63.4576
lradius 22.1671
lwrist -48.0187
lhand -36.694 -15.1857
lfingers 7.12502
lthumb -9.77942 14.5672
rfemur -30.0385 -15.6148 24.2053
rtibia 88.3352
rfoot -18.6169 -7.8935
rtoes -2.96641
lfemur -31.2727 14.4934 2.45599
ltibia 91.68
lfoot -20.9722 -1.40068
ltoes -26.5117
1467
root 12.8895 20.2007 21.0309 173.2 4.74287 -171.946
lowerback 28.1142 0.380879 4.456
upperback -5.02027 3.31942 4.23712
thorax -21.273 1.27409 0.856562
lowerneck -1.76815 -3.1848 -8.39093
upperneck 12.3432 -4.19934 7.86841
head 4.312 -1.84635 3.63788
rclavicle -3.13086e-015 -2.18663e-014
rhumerus 112.641 -15.0554 -59.616
rradius 26.1769
rwrist 25.8678
rhand -32.7948 -11.5254
rfingers 7.12502
rthumb -6.01615 -401.42
lclavicle -3.13086e-015 -2.18663e-014
lhumerus 105.967 22.4028 63.2641
lradius 22.0971
lwrist -47.791
lhand -36.7652 -15.1264
lfingers 7.12502
lthumb -9.84808 14.6233
rfemur -32.3892 -15.7149 24.9519
rtibia 88.4496
rfoot -19.2944 -7.51972
rtoes -3.13979
lfemur -33.6702 15.1115 2.12906
ltibia 92.1231
lfoot -21.5249 -0.51707
ltoes -27.8708
1468
root 12.8866 20.2294 20.9718 172.633 4.75214 -172.218
lowerback 28.4651 0.427217 4.21151
upperback -4.88449 3.30408 4.2324
thorax -21.299 1.29494 0.987123
lowerneck -1.69016 -3.28604 -9.08595
upperneck 12.3912 -4.34387 8.26637
head 4.34891 -1.92877 3.87232
rclavicle 6.95746e-015 -2.0276e-014
rhumerus 112.759 -14.9341 -59.6892
rradius 26.1079
rwrist 25.9915
rhand -32.7681 -11.4076
rfingers 7.12502
rthumb -5.99033 -401.303
lclavicle 6.95746e-015 -2.0276e-014
lhumerus 105.683 22.6666 62.8009
lradius 22.0958
lwrist -47.2765
lhand -36.8081 -15.0089
lfingers 7.12502
lthumb -9.88951 14.7388
rfemur -34.7437 -16.1716 25.1615
rtibia 88.5721
rfoot -20.0813 -7.26274
rtoes -3.79555
lfemur -35.9679 15.5595 1.23308
ltibia 92.4333
lfoot -21.9287 -0.162382
ltoes -28.3695
1469
root 12.8822 20.2472 20.9131 171.993 4.53328 -172.604
lowerback 28.8278 0.413527 3.89097
upperback -4.73016 3.16027 4.17119
thorax -21.304 1.26639 1.15332
lowerneck -1.7259 -3.36199 -9.24553
upperneck 12.3337 -4.42808 8.12685
head 4.34688 -1.9891 3.84919
rclavicle 1.83379e-014 3.37934e-014
rhumerus 112.811 -14.8639 -59.6982
rradius 26.086
rwrist 26.0328
rhand -32.7573 -11.291
rfingers 7.12502
rthumb -5.97992 -401.187
lclavicle 1.83379e-014 3.37934e-014
lhumerus 105.468 22.8737 62.4266
lradius 22.0886
lwrist -46.8659
lhand -36.8514 -14.9173
lfingers 7.12502
lthumb -9.93126 14.8284
rfemur -37.0949 -16.5892 25.292
rtibia 88.7052
rfoot -20.6074 -7.47223
rtoes -4.48479
lfemur -38.4123 15.7642 0.126906
ltibia 92.7696
lfoot -22.407 -0.0500116
ltoes -27.8845
